<svg version="1.1" id="Layer_1" xmlns="http://www.w3.org/2000/svg" xmlns:xlink="http://www.w3.org/1999/xlink" x="0px" y="0px"
	 width="100%" viewBox="0 0 500 500" enable-background="new 0 0 500 500" xml:space="preserve">
<path fill="#000000" opacity="0.000000" stroke="none" 
	d="
M501.000000,190.000000 
	C501.000000,293.999969 501.000000,397.499969 501.000000,500.999939 
	C334.333405,500.999969 167.666794,500.999969 1.000145,501.000000 
	C1.000097,334.333435 1.000097,167.666870 1.000048,1.000234 
	C167.666519,1.000156 334.333038,1.000156 500.999786,1.000078 
	C501.000000,63.833332 501.000000,126.666664 501.000000,190.000000 
M175.752136,434.958252 
	C186.799011,435.639130 197.842270,436.828064 208.893448,436.907074 
	C244.222061,437.159760 279.554321,437.105743 314.883057,436.862335 
	C319.094269,436.833313 321.262573,438.444733 322.965729,441.682495 
	C329.338104,453.796539 335.788177,465.871552 341.980865,478.076996 
	C343.421295,480.916016 344.898560,482.194885 348.285736,482.099182 
	C358.110413,481.821564 367.947998,482.000854 377.780518,482.000854 
	C391.348541,482.000854 404.916565,482.000854 419.153015,482.000854 
	C407.168457,459.477692 395.502136,437.552551 383.823730,415.604767 
	C405.825317,403.404175 424.418488,387.759979 439.254120,367.973236 
	C462.857819,336.492218 474.748810,300.918549 474.980103,261.539703 
	C475.098572,241.375412 475.482819,221.194244 474.831482,201.050308 
	C474.397156,187.618454 473.149872,174.100342 470.863953,160.863022 
	C465.075775,127.344521 448.904205,98.938042 425.731049,74.413681 
	C414.255554,62.269028 400.982544,52.285694 386.465790,43.987103 
	C365.372467,31.928988 342.671204,24.542116 318.570984,22.176937 
	C305.550140,20.899076 292.359619,21.009857 279.248047,21.064686 
	C248.802032,21.191999 218.350266,21.372770 187.915314,22.121469 
	C172.495544,22.500795 157.726883,26.670244 143.172607,31.876938 
	C110.811760,43.453812 84.412750,63.131016 63.688641,90.229866 
	C41.872532,118.756607 29.466488,151.396378 28.453220,187.184738 
	C27.523573,220.019577 26.020002,252.997330 29.980820,285.820251 
	C32.007477,302.614899 36.562309,318.698029 43.660553,334.007904 
	C54.284317,356.921783 68.647240,377.037445 87.974075,393.603760 
	C102.271202,405.858826 117.582298,416.433014 135.266312,422.879150 
	C148.201706,427.594360 161.648560,430.906403 175.752136,434.958252 
z"/>
<path fill="#EFDBF9" opacity="1.000000" stroke="none" 
	d="
M175.309784,434.901062 
	C161.648560,430.906403 148.201706,427.594360 135.266312,422.879150 
	C117.582298,416.433014 102.271202,405.858826 87.974075,393.603760 
	C68.647240,377.037445 54.284317,356.921783 43.660553,334.007904 
	C36.562309,318.698029 32.007477,302.614899 29.980820,285.820251 
	C26.020002,252.997330 27.523573,220.019577 28.453220,187.184738 
	C29.466488,151.396378 41.872532,118.756607 63.688641,90.229866 
	C84.412750,63.131016 110.811760,43.453812 143.172607,31.876938 
	C157.726883,26.670244 172.495544,22.500795 187.915314,22.121469 
	C218.350266,21.372770 248.802032,21.191999 279.248047,21.064686 
	C292.359619,21.009857 305.550140,20.899076 318.570984,22.176937 
	C342.671204,24.542116 365.372467,31.928988 386.465790,43.987103 
	C400.982544,52.285694 414.255554,62.269028 425.731049,74.413681 
	C448.904205,98.938042 465.075775,127.344521 470.863953,160.863022 
	C473.149872,174.100342 474.397156,187.618454 474.831482,201.050308 
	C475.482819,221.194244 475.098572,241.375412 474.980103,261.539703 
	C474.748810,300.918549 462.857819,336.492218 439.254120,367.973236 
	C424.418488,387.759979 405.825317,403.404175 383.823730,415.604767 
	C395.502136,437.552551 407.168457,459.477692 419.153015,482.000854 
	C404.916565,482.000854 391.348541,482.000854 377.780518,482.000854 
	C367.947998,482.000854 358.110413,481.821564 348.285736,482.099182 
	C344.898560,482.194885 343.421295,480.916016 341.980865,478.076996 
	C335.788177,465.871552 329.338104,453.796539 322.965729,441.682495 
	C321.262573,438.444733 319.094269,436.833313 314.883057,436.862335 
	C279.554321,437.105743 244.222061,437.159760 208.893448,436.907074 
	C197.842270,436.828064 186.799011,435.639130 175.309784,434.901062 
M272.500000,71.000893 
	C248.168472,71.000893 223.831772,70.714233 199.508148,71.152626 
	C190.707260,71.311241 181.737015,72.381187 173.190567,74.459961 
	C145.017502,81.312599 121.991531,96.569542 104.168655,119.392136 
	C87.154396,141.179276 78.274117,166.019897 78.042580,193.724960 
	C77.842041,217.721527 77.673409,241.727905 78.170601,265.715851 
	C78.355774,274.650177 79.790077,283.703247 81.829025,292.427765 
	C88.292839,320.085815 103.425262,342.368195 125.477318,360.066650 
	C147.534027,377.768738 172.778488,386.772186 201.002579,386.947174 
	C235.998688,387.164124 270.997833,387.110535 305.994019,386.899628 
	C312.529175,386.860229 319.186615,386.112732 325.565247,384.693085 
	C355.045990,378.131836 379.377747,363.124512 398.230255,339.392120 
	C415.476898,317.681274 424.537567,292.952301 424.926361,265.274292 
	C425.272736,240.614304 425.148529,215.944077 424.902832,191.281662 
	C424.834290,184.404785 424.268372,177.390808 422.782288,170.694580 
	C416.119934,140.674683 400.761902,115.882248 376.425354,96.990959 
	C354.737701,80.155846 330.031647,71.402458 302.497589,71.022217 
	C292.833496,70.888748 283.165955,71.000893 272.500000,71.000893 
z"/>
<path fill="#000000" opacity="0.000000" stroke="none" 
	d="
M273.000000,71.000893 
	C283.165955,71.000893 292.833496,70.888748 302.497589,71.022217 
	C330.031647,71.402458 354.737701,80.155846 376.425354,96.990959 
	C400.761902,115.882248 416.119934,140.674683 422.782288,170.694580 
	C424.268372,177.390808 424.834290,184.404785 424.902832,191.281662 
	C425.148529,215.944077 425.272736,240.614304 424.926361,265.274292 
	C424.537567,292.952301 415.476898,317.681274 398.230255,339.392120 
	C379.377747,363.124512 355.045990,378.131836 325.565247,384.693085 
	C319.186615,386.112732 312.529175,386.860229 305.994019,386.899628 
	C270.997833,387.110535 235.998688,387.164124 201.002579,386.947174 
	C172.778488,386.772186 147.534027,377.768738 125.477318,360.066650 
	C103.425262,342.368195 88.292839,320.085815 81.829025,292.427765 
	C79.790077,283.703247 78.355774,274.650177 78.170601,265.715851 
	C77.673409,241.727905 77.842041,217.721527 78.042580,193.724960 
	C78.274117,166.019897 87.154396,141.179276 104.168655,119.392136 
	C121.991531,96.569542 145.017502,81.312599 173.190567,74.459961 
	C181.737015,72.381187 190.707260,71.311241 199.508148,71.152626 
	C223.831772,70.714233 248.168472,71.000893 273.000000,71.000893 
z"/>
</svg>