<svg version="1.1" id="Layer_1" xmlns="http://www.w3.org/2000/svg" xmlns:xlink="http://www.w3.org/1999/xlink" x="0px" y="0px"
	 width="100%" viewBox="0 0 1000 1000" enable-background="new 0 0 1000 1000" xml:space="preserve">
<path fill="#000000" opacity="0.000000" stroke="none" 
	d="
M456.000000,1001.000000 
	C304.000000,1001.000000 152.500000,1001.000000 1.000000,1001.000000 
	C1.000000,667.666687 1.000000,334.333344 1.000000,1.000000 
	C334.333344,1.000000 667.666687,1.000000 1001.000000,1.000000 
	C1001.000000,334.333344 1001.000000,667.666687 1001.000000,1001.000000 
	C819.500000,1001.000000 638.000000,1001.000000 456.000000,1001.000000 
M555.492310,687.000732 
	C558.491516,687.000732 561.541992,687.350464 564.478088,686.920044 
	C569.063416,686.247925 571.194824,688.454102 573.120361,692.242737 
	C579.322815,704.446838 585.898438,716.460754 592.204773,728.613098 
	C593.483582,731.077515 594.936462,732.113342 597.885742,732.084717 
	C615.381531,731.914673 632.879883,732.000732 650.377319,732.000732 
	C656.420593,732.000732 662.463806,732.000732 669.149902,732.000732 
	C657.136963,709.420471 645.479065,687.507507 634.197327,666.301697 
	C642.801819,660.121155 651.016846,654.427368 659.009949,648.437378 
	C677.642578,634.474060 691.765991,616.653625 703.110962,596.464966 
	C718.731140,568.668518 725.177734,538.628662 724.967102,507.007629 
	C724.801147,482.088440 724.379211,457.170471 723.960083,432.253815 
	C723.882568,427.647400 723.663818,422.979980 722.848328,418.460175 
	C718.951111,396.859222 712.025391,376.337433 700.764954,357.355896 
	C684.257690,329.529938 661.815369,307.837921 633.506897,292.311310 
	C606.559998,277.531494 577.468079,271.053741 546.858948,271.008423 
	C517.863220,270.965485 488.867004,271.089386 459.871826,270.960632 
	C445.670349,270.897583 431.675385,272.110687 417.710632,274.896759 
	C384.707703,281.481049 356.389984,296.865417 331.992584,319.691833 
	C320.995453,329.980865 311.792847,341.825134 303.872345,354.659058 
	C288.211243,380.035309 279.575653,407.802673 278.276337,437.379517 
	C277.129211,463.492096 277.861237,489.695618 278.103668,515.855774 
	C278.176514,523.716064 278.843109,531.660461 280.185089,539.402161 
	C283.907318,560.875305 290.862457,581.224976 301.981659,600.138794 
	C318.833649,628.804260 341.922577,650.820801 371.137634,666.555298 
	C394.217041,678.985352 419.003021,686.041809 445.017426,686.714172 
	C481.487946,687.656677 518.000183,686.983093 555.492310,687.000732 
z"/>
<path fill="#EFDBF9" opacity="1.000000" stroke="none" 
	d="
M554.993469,687.000732 
	C518.000183,686.983093 481.487946,687.656677 445.017426,686.714172 
	C419.003021,686.041809 394.217041,678.985352 371.137634,666.555298 
	C341.922577,650.820801 318.833649,628.804260 301.981659,600.138794 
	C290.862457,581.224976 283.907318,560.875305 280.185089,539.402161 
	C278.843109,531.660461 278.176514,523.716064 278.103668,515.855774 
	C277.861237,489.695618 277.129211,463.492096 278.276337,437.379517 
	C279.575653,407.802673 288.211243,380.035309 303.872345,354.659058 
	C311.792847,341.825134 320.995453,329.980865 331.992584,319.691833 
	C356.389984,296.865417 384.707703,281.481049 417.710632,274.896759 
	C431.675385,272.110687 445.670349,270.897583 459.871826,270.960632 
	C488.867004,271.089386 517.863220,270.965485 546.858948,271.008423 
	C577.468079,271.053741 606.559998,277.531494 633.506897,292.311310 
	C661.815369,307.837921 684.257690,329.529938 700.764954,357.355896 
	C712.025391,376.337433 718.951111,396.859222 722.848328,418.460175 
	C723.663818,422.979980 723.882568,427.647400 723.960083,432.253815 
	C724.379211,457.170471 724.801147,482.088440 724.967102,507.007629 
	C725.177734,538.628662 718.731140,568.668518 703.110962,596.464966 
	C691.765991,616.653625 677.642578,634.474060 659.009949,648.437378 
	C651.016846,654.427368 642.801819,660.121155 634.197327,666.301697 
	C645.479065,687.507507 657.136963,709.420471 669.149902,732.000732 
	C662.463806,732.000732 656.420593,732.000732 650.377319,732.000732 
	C632.879883,732.000732 615.381531,731.914673 597.885742,732.084717 
	C594.936462,732.113342 593.483582,731.077515 592.204773,728.613098 
	C585.898438,716.460754 579.322815,704.446838 573.120361,692.242737 
	C571.194824,688.454102 569.063416,686.247925 564.478088,686.920044 
	C561.541992,687.350464 558.491516,687.000732 554.993469,687.000732 
M584.611694,325.894379 
	C575.307739,324.263184 566.023254,321.368683 556.696350,321.224731 
	C520.875061,320.671875 485.037292,320.758240 449.212219,321.171967 
	C440.293762,321.274933 431.249390,322.847656 422.522339,324.866425 
	C394.484558,331.352295 372.087494,346.885101 354.284729,369.220245 
	C338.591034,388.909424 329.238403,411.603058 328.334045,436.527771 
	C327.243561,466.581726 328.068298,496.745758 329.151245,526.822998 
	C329.824921,545.532532 337.033844,562.619690 346.955475,578.419983 
	C358.388214,596.626648 373.528107,611.187317 392.281677,621.565430 
	C409.268921,630.966064 427.587952,636.808472 447.205933,636.934326 
	C482.867706,637.163025 518.532593,637.108521 554.194641,636.905823 
	C561.213745,636.865906 568.386047,636.337830 575.213562,634.809937 
	C604.635437,628.225952 629.085693,613.419006 647.989746,589.679626 
	C665.942688,567.134644 674.887939,541.483215 674.984680,512.726929 
	C675.058167,490.895935 675.164185,469.062622 674.910278,447.234344 
	C674.820801,439.542511 674.076721,431.809814 672.989990,424.187195 
	C669.797302,401.793121 660.053955,382.202606 645.522217,365.186035 
	C629.422729,346.333588 609.486206,332.888641 584.611694,325.894379 
z"/>
<path fill="#000000" opacity="0.000000" stroke="none" 
	d="
M585.023071,325.942749 
	C609.486206,332.888641 629.422729,346.333588 645.522217,365.186035 
	C660.053955,382.202606 669.797302,401.793121 672.989990,424.187195 
	C674.076721,431.809814 674.820801,439.542511 674.910278,447.234344 
	C675.164185,469.062622 675.058167,490.895935 674.984680,512.726929 
	C674.887939,541.483215 665.942688,567.134644 647.989746,589.679626 
	C629.085693,613.419006 604.635437,628.225952 575.213562,634.809937 
	C568.386047,636.337830 561.213745,636.865906 554.194641,636.905823 
	C518.532593,637.108521 482.867706,637.163025 447.205933,636.934326 
	C427.587952,636.808472 409.268921,630.966064 392.281677,621.565430 
	C373.528107,611.187317 358.388214,596.626648 346.955475,578.419983 
	C337.033844,562.619690 329.824921,545.532532 329.151245,526.822998 
	C328.068298,496.745758 327.243561,466.581726 328.334045,436.527771 
	C329.238403,411.603058 338.591034,388.909424 354.284729,369.220245 
	C372.087494,346.885101 394.484558,331.352295 422.522339,324.866425 
	C431.249390,322.847656 440.293762,321.274933 449.212219,321.171967 
	C485.037292,320.758240 520.875061,320.671875 556.696350,321.224731 
	C566.023254,321.368683 575.307739,324.263184 585.023071,325.942749 
z"/>
</svg>